# xmcd CD database file
#
# Track frame offsets:
#	225
#	8479
#	24824
#	35653
#	54259
#	71026
#	87859
#	104457
#	119457
#	136436
#	149056
#	162818
#
# Disc length: 2307 seconds
#
# Revision: 0
# Processed by: cddbd v1.5.1PL0 Copyright (c) Steve Scherf et al.
# Submitted via: CDex 1.50beta10
#
DISCID=9e09000c
DTITLE=Anne&Agnetha - På vårat vis
DYEAR=1999
DGENRE=Country
TTITLE0=Svartåsen
TTITLE1=Ingen annan än du
TTITLE2=Förbannad
TTITLE3=Som en duva
TTITLE4=The blame
TTITLE5=Är du min älskling än?
TTITLE6=Trikken hjem
TTITLE7=Mitt hjärta tillhör dig
TTITLE8=Fly lille fugl
TTITLE9=Sån´t är livet
TTITLE10=Branded man
TTITLE11=Har du en vän?
EXTD=YEAR: 1999
EXTT0=
EXTT1=
EXTT2=
EXTT3=
EXTT4=
EXTT5=
EXTT6=
EXTT7=
EXTT8=
EXTT9=
EXTT10=
EXTT11=
PLAYORDER=
